<svg width="193" height="178" viewBox="0 0 193 178" fill="none" xmlns="http://www.w3.org/2000/svg">
<path d="M158.355 72.6762C159.987 72.9672 161.545 71.8808 161.836 70.2497L166.577 43.6693C166.868 42.0382 165.782 40.4801 164.151 40.1891C162.52 39.8981 160.962 40.9845 160.671 42.6156L156.456 66.2426L132.829 62.0278C131.198 61.7368 129.64 62.8232 129.349 64.4543C129.058 66.0854 130.144 67.6436 131.775 67.9345L158.355 72.6762ZM29.6807 42.9317L32.6807 42.9317C32.6807 22.9539 46.53 6.33689 68.3576 6.00509C90.4994 5.66852 121.998 22.0672 156.421 71.4386L158.882 69.7228L161.343 68.007C126.514 18.054 93.4124 -0.37645 68.2664 0.00578686C42.8061 0.392801 26.6807 20.0425 26.6807 42.9317L29.6807 42.9317Z" fill="white"/>
<path d="M30.2075 105.324C28.5764 105.033 27.0183 106.119 26.7273 107.75L21.9856 134.331C21.6946 135.962 22.781 137.52 24.4121 137.811C26.0432 138.102 27.6014 137.016 27.8924 135.384L32.1072 111.757L55.7342 115.972C57.3653 116.263 58.9235 115.177 59.2144 113.546C59.5054 111.915 58.419 110.356 56.7879 110.065L30.2075 105.324ZM158.882 135.068L155.882 135.068C155.882 155.046 142.033 171.663 120.205 171.995C98.0636 172.331 66.5649 155.933 32.1416 106.561L29.6807 108.277L27.2198 109.993C62.0486 159.946 95.1506 178.376 120.297 177.994C145.757 177.607 161.882 157.958 161.882 135.068L158.882 135.068Z" fill="white"/>
<path d="M133.36 117C131.919 117 130.815 116.632 130.048 115.896C129.312 115.129 128.944 114.041 128.944 112.63V88.94C128.944 87.5293 129.312 86.456 130.048 85.72C130.815 84.9533 131.919 84.57 133.36 84.57H148.954C150.058 84.57 150.886 84.846 151.438 85.398C151.99 85.95 152.266 86.7473 152.266 87.79C152.266 88.8633 151.99 89.6913 151.438 90.274C150.886 90.826 150.058 91.102 148.954 91.102H137.04V97.266H147.942C149.015 97.266 149.828 97.542 150.38 98.094C150.963 98.646 151.254 99.4587 151.254 100.532C151.254 101.605 150.963 102.418 150.38 102.97C149.828 103.522 149.015 103.798 147.942 103.798H137.04V110.468H148.954C150.058 110.468 150.886 110.759 151.438 111.342C151.99 111.894 152.266 112.691 152.266 113.734C152.266 114.807 151.99 115.62 151.438 116.172C150.886 116.724 150.058 117 148.954 117H133.36ZM161.156 117.414C159.868 117.414 158.887 117.077 158.212 116.402C157.537 115.727 157.2 114.731 157.2 113.412V88.342C157.2 86.9927 157.537 85.9653 158.212 85.26C158.887 84.524 159.776 84.156 160.88 84.156C161.861 84.156 162.628 84.34 163.18 84.708C163.732 85.076 164.345 85.6893 165.02 86.548L179.602 104.764H178.314V88.112C178.314 86.824 178.636 85.8427 179.28 85.168C179.955 84.4933 180.936 84.156 182.224 84.156C183.512 84.156 184.478 84.4933 185.122 85.168C185.797 85.8427 186.134 86.824 186.134 88.112V113.596C186.134 114.761 185.827 115.697 185.214 116.402C184.601 117.077 183.773 117.414 182.73 117.414C181.687 117.414 180.859 117.23 180.246 116.862C179.663 116.463 179.035 115.85 178.36 115.022L163.778 96.76H165.066V113.412C165.066 114.731 164.729 115.727 164.054 116.402C163.41 117.077 162.444 117.414 161.156 117.414Z" fill="white"/>
<path d="M126 121.324H189.124V122.612H126V121.324Z" fill="white"/>
<path d="M7.176 92.414C5.82667 92.414 4.784 92.046 4.048 91.31C3.312 90.5433 2.944 89.47 2.944 88.09V63.48C2.944 62.0693 3.312 60.996 4.048 60.26C4.784 59.524 5.82667 59.156 7.176 59.156C8.556 59.156 9.59867 59.524 10.304 60.26C11.04 60.996 11.408 62.0693 11.408 63.48V88.09C11.408 89.47 11.0553 90.5433 10.35 91.31C9.64467 92.046 8.58667 92.414 7.176 92.414ZM21.6901 92C20.2487 92 19.1447 91.632 18.3781 90.896C17.6421 90.1293 17.2741 89.0407 17.2741 87.63V63.94C17.2741 62.5293 17.6421 61.456 18.3781 60.72C19.1447 59.9533 20.2487 59.57 21.6901 59.57H30.7061C36.3487 59.57 40.7034 60.9807 43.7701 63.802C46.8674 66.6233 48.4161 70.61 48.4161 75.762C48.4161 78.338 48.0174 80.638 47.2201 82.662C46.4227 84.6553 45.2727 86.3573 43.7701 87.768C42.2674 89.148 40.4121 90.206 38.2041 90.942C36.0267 91.6473 33.5274 92 30.7061 92H21.6901ZM25.7381 85.146H30.1541C31.7794 85.146 33.1747 84.9467 34.3401 84.548C35.5361 84.1493 36.5174 83.5667 37.2841 82.8C38.0814 82.0333 38.6641 81.0673 39.0321 79.902C39.4307 78.7367 39.6301 77.3567 39.6301 75.762C39.6301 72.5727 38.8481 70.2267 37.2841 68.724C35.7201 67.1907 33.3434 66.424 30.1541 66.424H25.7381V85.146Z" fill="white"/>
<path d="M0 96.324H50.4861V97.612H0V96.324Z" fill="white"/>
</svg>
