<svg width="240" height="179" viewBox="0 0 240 179" fill="none" xmlns="http://www.w3.org/2000/svg">
<path d="M220 0C231.046 0 240 8.95431 240 20V118.258C240 129.303 231.046 138.258 220 138.258H20C8.95444 138.258 0.000222557 129.303 0 118.258V20C5.45919e-06 8.95431 8.95431 3.22129e-07 20 0H220ZM27.3359 13.9424C16.2904 13.9425 7.33594 22.8968 7.33594 33.9424V104.315C7.33594 115.361 16.2904 124.315 27.3359 124.315H211.615C222.661 124.315 231.615 115.361 231.615 104.315V33.9424C231.615 22.8967 222.661 13.9424 211.615 13.9424H27.3359Z" fill="white"/>
<path d="M28.2789 134.273L75.8635 135.021L48.02 170.173L28.2789 134.273Z" fill="white"/>
<rect x="15" y="25" width="206" height="13" rx="6.5" fill="white"/>
<rect x="77" y="50" width="144" height="13" rx="6.5" fill="white"/>
<rect x="15" y="50" width="54" height="13" rx="6.5" fill="white"/>
</svg>
