<svg width="711" height="594" viewBox="0 0 711 594" fill="none" xmlns="http://www.w3.org/2000/svg">
<path d="M599.906 510.469H111.094V556.875H599.906V510.469Z" fill="#333333"/>
<path d="M277.734 92.8125H222.188V510.469H277.734V92.8125Z" fill="#333333"/>
<path d="M444.375 92.8125H222.188V139.219H444.375V92.8125Z" fill="#333333"/>
<path d="M444.375 139.219V232.031" stroke="#333333" stroke-width="3"/>
<path d="M444.375 324.844C475.053 324.844 499.922 304.067 499.922 278.438C499.922 252.808 475.053 232.031 444.375 232.031C413.697 232.031 388.828 252.808 388.828 278.438C388.828 304.067 413.697 324.844 444.375 324.844Z" stroke="#333333" stroke-width="3"/>
<path d="M444.375 324.844V417.656" stroke="#333333" stroke-width="3"/>
<path d="M444.375 343.406L388.828 389.812" stroke="#333333" stroke-width="3"/>
<path d="M444.375 343.406L499.922 389.812" stroke="#333333" stroke-width="3"/>
<path d="M444.375 417.656L388.828 464.062" stroke="#333333" stroke-width="3"/>
<path d="M444.375 417.656L499.922 464.062" stroke="#333333" stroke-width="3"/>
</svg>
