<svg width="458" height="415" viewBox="0 0 458 415" fill="none" xmlns="http://www.w3.org/2000/svg">
<path d="M257.625 129.688H171.75V207.5H257.625V129.688Z" fill="white"/>
<path d="M372.125 129.688H286.25V207.5H372.125V129.688Z" fill="white"/>
<path d="M200.284 191.3V147.664H215.54C218.58 147.664 221.087 148.189 223.061 149.24C225.036 150.277 226.506 151.676 227.472 153.438C228.438 155.185 228.92 157.124 228.92 159.255C228.92 161.13 228.587 162.678 227.919 163.899C227.266 165.121 226.399 166.087 225.32 166.797C224.254 167.507 223.097 168.033 221.847 168.374V168.8C223.182 168.885 224.524 169.354 225.874 170.206C227.223 171.059 228.352 172.28 229.261 173.871C230.17 175.462 230.625 177.408 230.625 179.709C230.625 181.897 230.128 183.864 229.134 185.611C228.139 187.358 226.57 188.743 224.425 189.766C222.28 190.789 219.489 191.3 216.051 191.3H200.284ZM205.568 186.613H216.051C219.503 186.613 221.953 185.945 223.402 184.61C224.865 183.26 225.597 181.627 225.597 179.709C225.597 178.232 225.22 176.868 224.467 175.618C223.714 174.354 222.642 173.346 221.25 172.593C219.858 171.826 218.21 171.442 216.307 171.442H205.568V186.613ZM205.568 166.84H215.369C216.96 166.84 218.395 166.527 219.673 165.902C220.966 165.277 221.989 164.397 222.741 163.26C223.509 162.124 223.892 160.789 223.892 159.255C223.892 157.337 223.224 155.711 221.889 154.375C220.554 153.026 218.438 152.351 215.54 152.351H205.568V166.84Z" fill="black"/>
<path d="M142.875 130V207.812H57V130H142.875Z" fill="white"/>
<path d="M83.3239 190.512H77.7841L93.8068 146.876H99.2614L115.284 190.512H109.744L96.7045 153.779H96.3636L83.3239 190.512ZM85.3693 173.467H107.699V178.154H85.3693V173.467Z" fill="black"/>
<path d="M350.298 160.2H345.014C344.701 158.68 344.154 157.345 343.373 156.194C342.606 155.044 341.668 154.078 340.56 153.297C339.467 152.501 338.252 151.904 336.917 151.507C335.582 151.109 334.19 150.91 332.741 150.91C330.099 150.91 327.705 151.578 325.56 152.913C323.43 154.248 321.732 156.216 320.468 158.815C319.218 161.414 318.593 164.603 318.593 168.382C318.593 172.16 319.218 175.349 320.468 177.949C321.732 180.548 323.43 182.515 325.56 183.851C327.705 185.186 330.099 185.853 332.741 185.853C334.19 185.853 335.582 185.654 336.917 185.257C338.252 184.859 339.467 184.27 340.56 183.488C341.668 182.693 342.606 181.72 343.373 180.569C344.154 179.404 344.701 178.069 345.014 176.564H350.298C349.9 178.794 349.175 180.789 348.124 182.551C347.073 184.312 345.766 185.811 344.204 187.047C342.641 188.268 340.887 189.199 338.941 189.838C337.009 190.477 334.943 190.797 332.741 190.797C329.019 190.797 325.71 189.887 322.812 188.069C319.914 186.251 317.634 183.666 315.972 180.314C314.31 176.961 313.479 172.984 313.479 168.382C313.479 163.779 314.31 159.802 315.972 156.45C317.634 153.098 319.914 150.512 322.812 148.694C325.71 146.876 329.019 145.967 332.741 145.967C334.943 145.967 337.009 146.287 338.941 146.926C340.887 147.565 342.641 148.503 344.204 149.738C345.766 150.96 347.073 152.451 348.124 154.213C349.175 155.96 349.9 157.956 350.298 160.2Z" fill="black"/>
</svg>
